<?xml version="1.0" encoding="UTF-8" standalone="no"?>
<!DOCTYPE svg PUBLIC "-//W3C//DTD SVG 1.1//EN"
 "http://www.w3.org/Graphics/SVG/1.1/DTD/svg11.dtd">
<!-- Generated by graphviz version 2.43.0 (0)
 -->
<!-- Title: dependency&#45;cruiser output Pages: 1 -->
<svg width="672pt" height="308pt"
 viewBox="0.00 0.00 672.00 308.00" xmlns="http://www.w3.org/2000/svg" xmlns:xlink="http://www.w3.org/1999/xlink">
<g id="graph0" class="graph" transform="scale(1 1) rotate(0) translate(4 304)">
<title>dependency&#45;cruiser output</title>
<polygon fill="white" stroke="transparent" points="-4,4 -4,-304 668,-304 668,4 -4,4"/>
<g id="clust1" class="cluster">
<title>cluster_src</title>
<path fill="#ffffff" stroke="black" stroke-width="2" d="M20,-56C20,-56 644,-56 644,-56 650,-56 656,-62 656,-68 656,-68 656,-280 656,-280 656,-286 650,-292 644,-292 644,-292 20,-292 20,-292 14,-292 8,-286 8,-280 8,-280 8,-68 8,-68 8,-62 14,-56 20,-56"/>
<text text-anchor="middle" x="332" y="-280.8" font-family="Helvetica,sans-Serif" font-weight="bold" font-size="9.00">src</text>
</g>
<g id="clust2" class="cluster">
<title>cluster_src/core</title>
<path fill="#ffffff" stroke="black" stroke-width="2" d="M467,-163C467,-163 636,-163 636,-163 642,-163 648,-169 648,-175 648,-175 648,-203 648,-203 648,-209 642,-215 636,-215 636,-215 467,-215 467,-215 461,-215 455,-209 455,-203 455,-203 455,-175 455,-175 455,-169 461,-163 467,-163"/>
<text text-anchor="middle" x="551.5" y="-203.8" font-family="Helvetica,sans-Serif" font-weight="bold" font-size="9.00">core</text>
</g>
<g id="clust3" class="cluster">
<title>cluster_src/integration</title>
<path fill="#ffffff" stroke="black" stroke-width="2" d="M90,-114C90,-114 306,-114 306,-114 312,-114 318,-120 318,-126 318,-126 318,-154 318,-154 318,-160 312,-166 306,-166 306,-166 90,-166 90,-166 84,-166 78,-160 78,-154 78,-154 78,-126 78,-126 78,-120 84,-114 90,-114"/>
<text text-anchor="middle" x="198" y="-154.8" font-family="Helvetica,sans-Serif" font-weight="bold" font-size="9.00">integration</text>
</g>
<g id="clust4" class="cluster">
<title>cluster_src/table&#45;piece</title>
<path fill="#ffffff" stroke="black" stroke-width="2" d="M357.5,-154C357.5,-154 407.5,-154 407.5,-154 413.5,-154 419.5,-160 419.5,-166 419.5,-166 419.5,-194 419.5,-194 419.5,-200 413.5,-206 407.5,-206 407.5,-206 357.5,-206 357.5,-206 351.5,-206 345.5,-200 345.5,-194 345.5,-194 345.5,-166 345.5,-166 345.5,-160 351.5,-154 357.5,-154"/>
<text text-anchor="middle" x="382.5" y="-194.8" font-family="Helvetica,sans-Serif" font-weight="bold" font-size="9.00">table&#45;piece</text>
</g>
<g id="clust5" class="cluster">
<title>cluster_src/table</title>
<path fill="#ffffff" stroke="black" stroke-width="2" d="M338,-214C338,-214 427,-214 427,-214 433,-214 439,-220 439,-226 439,-226 439,-254 439,-254 439,-260 433,-266 427,-266 427,-266 338,-266 338,-266 332,-266 326,-260 326,-254 326,-254 326,-226 326,-226 326,-220 332,-214 338,-214"/>
<text text-anchor="middle" x="382.5" y="-254.8" font-family="Helvetica,sans-Serif" font-weight="bold" font-size="9.00">table</text>
</g>
<g id="clust6" class="cluster">
<title>cluster_src/ui</title>
<path fill="#ffffff" stroke="black" stroke-width="2" d="M349.5,-70C349.5,-70 529,-70 529,-70 535,-70 541,-76 541,-82 541,-82 541,-110 541,-110 541,-116 535,-122 529,-122 529,-122 349.5,-122 349.5,-122 343.5,-122 337.5,-116 337.5,-110 337.5,-110 337.5,-82 337.5,-82 337.5,-76 343.5,-70 349.5,-70"/>
<text text-anchor="middle" x="439.25" y="-110.8" font-family="Helvetica,sans-Serif" font-weight="bold" font-size="9.00">ui</text>
</g>
<!-- readline -->
<g id="node1" class="node">
<title>readline</title>
<path fill="#ffffcc" stroke="grey" d="M615.5,-48C615.5,-48 573.5,-48 573.5,-48 570.5,-48 567.5,-45 567.5,-42 567.5,-42 567.5,-36 567.5,-36 567.5,-33 570.5,-30 573.5,-30 573.5,-30 615.5,-30 615.5,-30 618.5,-30 621.5,-33 621.5,-36 621.5,-36 621.5,-42 621.5,-42 621.5,-45 618.5,-48 615.5,-48"/>
<text text-anchor="middle" x="594.5" y="-36.8" font-family="Helvetica,sans-Serif" font-size="9.00" fill="grey">readline</text>
</g>
<!-- src/core/api.ts -->
<g id="node2" class="node">
<title>src/core/api.ts</title>
<g id="a_node2"><a xlink:href="src/core/api.ts" xlink:title="api.ts">
<path fill="#ddfeff" stroke="black" d="M511,-189C511,-189 469,-189 469,-189 466,-189 463,-186 463,-183 463,-183 463,-177 463,-177 463,-174 466,-171 469,-171 469,-171 511,-171 511,-171 514,-171 517,-174 517,-177 517,-177 517,-183 517,-183 517,-186 514,-189 511,-189"/>
<text text-anchor="middle" x="490" y="-177.8" font-family="Helvetica,sans-Serif" font-size="9.00">api.ts</text>
</a>
</g>
</g>
<!-- src/core/map&#45;direction.ts -->
<g id="node3" class="node">
<title>src/core/map&#45;direction.ts</title>
<g id="a_node3"><a xlink:href="src/core/map-direction.ts" xlink:title="map&#45;direction.ts">
<path fill="#ddfeff" stroke="black" d="M634,-189C634,-189 555,-189 555,-189 552,-189 549,-186 549,-183 549,-183 549,-177 549,-177 549,-174 552,-171 555,-171 555,-171 634,-171 634,-171 637,-171 640,-174 640,-177 640,-177 640,-183 640,-183 640,-186 637,-189 634,-189"/>
<text text-anchor="middle" x="594.5" y="-177.8" font-family="Helvetica,sans-Serif" font-size="9.00">map&#45;direction.ts</text>
</a>
</g>
</g>
<!-- src/core/api.ts&#45;&gt;src/core/map&#45;direction.ts -->
<g id="edge1" class="edge">
<title>src/core/api.ts&#45;&gt;src/core/map&#45;direction.ts</title>
<path fill="none" stroke="#000000" stroke-width="2" stroke-opacity="0.200000" d="M517.13,-180C524.94,-180 533.78,-180 542.6,-180"/>
<polygon fill="#000000" fill-opacity="0.200000" stroke="#000000" stroke-width="2" stroke-opacity="0.200000" points="542.7,-182.1 548.7,-180 542.7,-177.9 542.7,-182.1"/>
</g>
<!-- src/integration/robot&#45;commands.ts -->
<g id="node4" class="node">
<title>src/integration/robot&#45;commands.ts</title>
<g id="a_node4"><a xlink:href="src/integration/robot-commands.ts" xlink:title="robot&#45;commands.ts">
<path fill="#ddfeff" stroke="black" d="M304,-140C304,-140 211,-140 211,-140 208,-140 205,-137 205,-134 205,-134 205,-128 205,-128 205,-125 208,-122 211,-122 211,-122 304,-122 304,-122 307,-122 310,-125 310,-128 310,-128 310,-134 310,-134 310,-137 307,-140 304,-140"/>
<text text-anchor="middle" x="257.5" y="-128.8" font-family="Helvetica,sans-Serif" font-size="9.00">robot&#45;commands.ts</text>
</a>
</g>
</g>
<!-- src/integration/robot&#45;commands.ts&#45;&gt;src/core/api.ts -->
<g id="edge2" class="edge">
<title>src/integration/robot&#45;commands.ts&#45;&gt;src/core/api.ts</title>
<path fill="none" stroke="#000000" stroke-width="2" stroke-opacity="0.200000" d="M310.21,-134.35C354.91,-137.68 415.87,-143.39 439,-151 450.47,-154.78 462.21,-161.41 471.43,-167.39"/>
<polygon fill="#000000" fill-opacity="0.200000" stroke="#000000" stroke-width="2" stroke-opacity="0.200000" points="470.39,-169.22 476.54,-170.8 472.72,-165.72 470.39,-169.22"/>
</g>
<!-- src/integration/robot&#45;commands.ts&#45;&gt;src/core/map&#45;direction.ts -->
<g id="edge3" class="edge">
<title>src/integration/robot&#45;commands.ts&#45;&gt;src/core/map&#45;direction.ts</title>
<path fill="none" stroke="#000000" stroke-width="2" stroke-opacity="0.200000" d="M310.04,-129.91C346.24,-129.76 395.74,-130.78 439,-136 485.04,-141.55 496.76,-144.09 541,-158 550.19,-160.89 560,-164.77 568.62,-168.47"/>
<polygon fill="#000000" fill-opacity="0.200000" stroke="#000000" stroke-width="2" stroke-opacity="0.200000" points="568.03,-170.5 574.37,-170.98 569.71,-166.65 568.03,-170.5"/>
</g>
<!-- src/table&#45;piece/robot.ts -->
<g id="node5" class="node">
<title>src/table&#45;piece/robot.ts</title>
<g id="a_node5"><a xlink:href="src/table-piece/robot.ts" xlink:title="robot.ts">
<path fill="#ddfeff" stroke="black" d="M403.5,-180C403.5,-180 361.5,-180 361.5,-180 358.5,-180 355.5,-177 355.5,-174 355.5,-174 355.5,-168 355.5,-168 355.5,-165 358.5,-162 361.5,-162 361.5,-162 403.5,-162 403.5,-162 406.5,-162 409.5,-165 409.5,-168 409.5,-168 409.5,-174 409.5,-174 409.5,-177 406.5,-180 403.5,-180"/>
<text text-anchor="middle" x="382.5" y="-168.8" font-family="Helvetica,sans-Serif" font-size="9.00">robot.ts</text>
</a>
</g>
</g>
<!-- src/integration/robot&#45;commands.ts&#45;&gt;src/table&#45;piece/robot.ts -->
<g id="edge4" class="edge">
<title>src/integration/robot&#45;commands.ts&#45;&gt;src/table&#45;piece/robot.ts</title>
<path fill="none" stroke="#000000" stroke-width="2" stroke-opacity="0.200000" d="M286.41,-140.08C305.17,-146.18 329.94,-154.23 349.49,-160.59"/>
<polygon fill="#000000" fill-opacity="0.200000" stroke="#000000" stroke-width="2" stroke-opacity="0.200000" points="349.03,-162.65 355.38,-162.51 350.33,-158.65 349.03,-162.65"/>
</g>
<!-- src/ui/cli&#45;handler.ts -->
<g id="node6" class="node">
<title>src/ui/cli&#45;handler.ts</title>
<g id="a_node6"><a xlink:href="src/ui/cli-handler.ts" xlink:title="cli&#45;handler.ts">
<path fill="#ddfeff" stroke="black" d="M413.5,-96C413.5,-96 351.5,-96 351.5,-96 348.5,-96 345.5,-93 345.5,-90 345.5,-90 345.5,-84 345.5,-84 345.5,-81 348.5,-78 351.5,-78 351.5,-78 413.5,-78 413.5,-78 416.5,-78 419.5,-81 419.5,-84 419.5,-84 419.5,-90 419.5,-90 419.5,-93 416.5,-96 413.5,-96"/>
<text text-anchor="middle" x="382.5" y="-84.8" font-family="Helvetica,sans-Serif" font-size="9.00">cli&#45;handler.ts</text>
</a>
</g>
</g>
<!-- src/integration/robot&#45;commands.ts&#45;&gt;src/ui/cli&#45;handler.ts -->
<g id="edge5" class="edge">
<title>src/integration/robot&#45;commands.ts&#45;&gt;src/ui/cli&#45;handler.ts</title>
<path fill="none" stroke="#000000" stroke-width="2" stroke-opacity="0.200000" d="M283.69,-121.99C302.88,-115.12 329.42,-105.63 350.01,-98.26"/>
<polygon fill="#000000" fill-opacity="0.200000" stroke="#000000" stroke-width="2" stroke-opacity="0.200000" points="350.98,-100.15 355.92,-96.15 349.57,-96.19 350.98,-100.15"/>
</g>
<!-- src/table&#45;piece/robot.ts&#45;&gt;src/core/api.ts -->
<g id="edge13" class="edge">
<title>src/table&#45;piece/robot.ts&#45;&gt;src/core/api.ts</title>
<path fill="none" stroke="#000000" stroke-width="2" stroke-opacity="0.200000" d="M409.58,-173.22C423.78,-174.44 441.48,-175.95 456.57,-177.23"/>
<polygon fill="#000000" fill-opacity="0.200000" stroke="#000000" stroke-width="2" stroke-opacity="0.200000" points="456.7,-179.35 462.86,-177.77 457.06,-175.17 456.7,-179.35"/>
</g>
<!-- src/table&#45;piece/robot.ts&#45;&gt;src/core/map&#45;direction.ts -->
<g id="edge14" class="edge">
<title>src/table&#45;piece/robot.ts&#45;&gt;src/core/map&#45;direction.ts</title>
<path fill="none" stroke="#000000" stroke-width="2" stroke-opacity="0.200000" d="M409.56,-167.2C440.91,-163.28 495.07,-158.57 541,-165 547.68,-165.94 554.71,-167.51 561.37,-169.3"/>
<polygon fill="#000000" fill-opacity="0.200000" stroke="#000000" stroke-width="2" stroke-opacity="0.200000" points="561.03,-171.38 567.37,-170.99 562.16,-167.34 561.03,-171.38"/>
</g>
<!-- src/ui/base&#45;console.ts -->
<g id="node9" class="node">
<title>src/ui/base&#45;console.ts</title>
<g id="a_node9"><a xlink:href="src/ui/base-console.ts" xlink:title="base&#45;console.ts">
<path fill="#ddfeff" stroke="black" d="M527,-96C527,-96 453,-96 453,-96 450,-96 447,-93 447,-90 447,-90 447,-84 447,-84 447,-81 450,-78 453,-78 453,-78 527,-78 527,-78 530,-78 533,-81 533,-84 533,-84 533,-90 533,-90 533,-93 530,-96 527,-96"/>
<text text-anchor="middle" x="490" y="-84.8" font-family="Helvetica,sans-Serif" font-size="9.00">base&#45;console.ts</text>
</a>
</g>
</g>
<!-- src/ui/cli&#45;handler.ts&#45;&gt;src/ui/base&#45;console.ts -->
<g id="edge19" class="edge">
<title>src/ui/cli&#45;handler.ts&#45;&gt;src/ui/base&#45;console.ts</title>
<path fill="none" stroke="#000000" stroke-width="2" stroke-opacity="0.200000" d="M419.51,-87C426.41,-87 433.74,-87 440.95,-87"/>
<polygon fill="#000000" fill-opacity="0.200000" stroke="#000000" stroke-width="2" stroke-opacity="0.200000" points="440.97,-89.1 446.97,-87 440.97,-84.9 440.97,-89.1"/>
</g>
<!-- src/integration/toy&#45;robot&#45;console.ts -->
<g id="node7" class="node">
<title>src/integration/toy&#45;robot&#45;console.ts</title>
<g id="a_node7"><a xlink:href="src/integration/toy-robot-console.ts" xlink:title="toy&#45;robot&#45;console.ts">
<path fill="#ddfeff" stroke="black" d="M186,-140C186,-140 92,-140 92,-140 89,-140 86,-137 86,-134 86,-134 86,-128 86,-128 86,-125 89,-122 92,-122 92,-122 186,-122 186,-122 189,-122 192,-125 192,-128 192,-128 192,-134 192,-134 192,-137 189,-140 186,-140"/>
<text text-anchor="middle" x="139" y="-128.8" font-family="Helvetica,sans-Serif" font-size="9.00">toy&#45;robot&#45;console.ts</text>
</a>
</g>
</g>
<!-- src/integration/toy&#45;robot&#45;console.ts&#45;&gt;src/integration/robot&#45;commands.ts -->
<g id="edge10" class="edge">
<title>src/integration/toy&#45;robot&#45;console.ts&#45;&gt;src/integration/robot&#45;commands.ts</title>
<path fill="none" stroke="#000000" stroke-width="2" stroke-opacity="0.200000" d="M192.12,-131C194.24,-131 196.37,-131 198.5,-131"/>
<polygon fill="#000000" fill-opacity="0.200000" stroke="#000000" stroke-width="2" stroke-opacity="0.200000" points="198.88,-133.1 204.88,-131 198.88,-128.9 198.88,-133.1"/>
</g>
<!-- src/integration/toy&#45;robot&#45;console.ts&#45;&gt;src/table&#45;piece/robot.ts -->
<g id="edge6" class="edge">
<title>src/integration/toy&#45;robot&#45;console.ts&#45;&gt;src/table&#45;piece/robot.ts</title>
<path fill="none" stroke="#000000" stroke-width="2" stroke-opacity="0.200000" d="M176.67,-140.04C185.88,-142.15 195.78,-144.29 205,-146 254.98,-155.29 313.5,-162.95 349.01,-167.25"/>
<polygon fill="#000000" fill-opacity="0.200000" stroke="#000000" stroke-width="2" stroke-opacity="0.200000" points="349.16,-169.38 355.37,-168.01 349.66,-165.21 349.16,-169.38"/>
</g>
<!-- src/integration/toy&#45;robot&#45;console.ts&#45;&gt;src/ui/cli&#45;handler.ts -->
<g id="edge9" class="edge">
<title>src/integration/toy&#45;robot&#45;console.ts&#45;&gt;src/ui/cli&#45;handler.ts</title>
<path fill="none" stroke="#000000" stroke-width="2" stroke-opacity="0.200000" d="M177.38,-121.94C186.4,-119.88 196.02,-117.77 205,-116 250.65,-106.99 303.32,-98.59 339.16,-93.18"/>
<polygon fill="#000000" fill-opacity="0.200000" stroke="#000000" stroke-width="2" stroke-opacity="0.200000" points="339.59,-95.24 345.21,-92.27 338.96,-91.09 339.59,-95.24"/>
</g>
<!-- src/table/one&#45;piece&#45;table.ts -->
<g id="node8" class="node">
<title>src/table/one&#45;piece&#45;table.ts</title>
<g id="a_node8"><a xlink:href="src/table/one-piece-table.ts" xlink:title="one&#45;piece&#45;table.ts">
<path fill="#ddfeff" stroke="black" d="M425,-240C425,-240 340,-240 340,-240 337,-240 334,-237 334,-234 334,-234 334,-228 334,-228 334,-225 337,-222 340,-222 340,-222 425,-222 425,-222 428,-222 431,-225 431,-228 431,-228 431,-234 431,-234 431,-237 428,-240 425,-240"/>
<text text-anchor="middle" x="382.5" y="-228.8" font-family="Helvetica,sans-Serif" font-size="9.00">one&#45;piece&#45;table.ts</text>
</a>
</g>
</g>
<!-- src/integration/toy&#45;robot&#45;console.ts&#45;&gt;src/table/one&#45;piece&#45;table.ts -->
<g id="edge7" class="edge">
<title>src/integration/toy&#45;robot&#45;console.ts&#45;&gt;src/table/one&#45;piece&#45;table.ts</title>
<path fill="none" stroke="#000000" stroke-width="2" stroke-opacity="0.200000" d="M161.14,-140.03C195.59,-154.7 266.02,-184.54 326,-209 334.58,-212.5 343.93,-216.24 352.47,-219.62"/>
<polygon fill="#000000" fill-opacity="0.200000" stroke="#000000" stroke-width="2" stroke-opacity="0.200000" points="351.88,-221.64 358.24,-221.9 353.43,-217.74 351.88,-221.64"/>
</g>
<!-- src/integration/toy&#45;robot&#45;console.ts&#45;&gt;src/ui/base&#45;console.ts -->
<g id="edge8" class="edge">
<title>src/integration/toy&#45;robot&#45;console.ts&#45;&gt;src/ui/base&#45;console.ts</title>
<path fill="none" stroke="#000000" stroke-width="2" stroke-opacity="0.200000" d="M152.81,-121.97C165.48,-113.46 185.72,-101.01 205,-94 303.17,-58.31 335.65,-56.83 439,-72 445.25,-72.92 451.81,-74.45 458.04,-76.19"/>
<polygon fill="#000000" fill-opacity="0.200000" stroke="#000000" stroke-width="2" stroke-opacity="0.200000" points="457.79,-78.31 464.14,-77.99 458.98,-74.28 457.79,-78.31"/>
</g>
<!-- stream -->
<g id="node10" class="node">
<title>stream</title>
<path fill="#ffffcc" stroke="grey" d="M615.5,-18C615.5,-18 573.5,-18 573.5,-18 570.5,-18 567.5,-15 567.5,-12 567.5,-12 567.5,-6 567.5,-6 567.5,-3 570.5,0 573.5,0 573.5,0 615.5,0 615.5,0 618.5,0 621.5,-3 621.5,-6 621.5,-6 621.5,-12 621.5,-12 621.5,-15 618.5,-18 615.5,-18"/>
<text text-anchor="middle" x="594.5" y="-6.8" font-family="Helvetica,sans-Serif" font-size="9.00" fill="grey">stream</text>
</g>
<!-- src/integration/toy&#45;robot&#45;console.ts&#45;&gt;stream -->
<g id="edge11" class="edge">
<title>src/integration/toy&#45;robot&#45;console.ts&#45;&gt;stream</title>
<path fill="none" stroke="#000000" stroke-dasharray="5,2" stroke-opacity="0.200000" d="M145.46,-121.84C155.24,-106.37 177.31,-75.33 205,-61 324.67,0.96 491.66,-1.82 561.16,-6.26"/>
<polygon fill="#000000" fill-opacity="0.200000" stroke="#000000" stroke-opacity="0.200000" points="561.06,-8.36 567.18,-6.66 561.34,-4.17 561.06,-8.36"/>
</g>
<!-- src/table/one&#45;piece&#45;table.ts&#45;&gt;src/core/api.ts -->
<g id="edge15" class="edge">
<title>src/table/one&#45;piece&#45;table.ts&#45;&gt;src/core/api.ts</title>
<path fill="none" stroke="#000000" stroke-width="2" stroke-opacity="0.200000" d="M408.71,-221.92C418.32,-218.22 429.3,-213.7 439,-209 449.17,-204.07 460.07,-197.86 469.09,-192.46"/>
<polygon fill="#000000" fill-opacity="0.200000" stroke="#000000" stroke-width="2" stroke-opacity="0.200000" points="470.39,-194.12 474.44,-189.22 468.22,-190.53 470.39,-194.12"/>
</g>
<!-- src/table/one&#45;piece&#45;table.ts&#45;&gt;src/core/map&#45;direction.ts -->
<g id="edge16" class="edge">
<title>src/table/one&#45;piece&#45;table.ts&#45;&gt;src/core/map&#45;direction.ts</title>
<path fill="none" stroke="#000000" stroke-width="2" stroke-opacity="0.200000" d="M425.76,-221.98C457.56,-215.05 502.15,-204.98 541,-195 546.26,-193.65 551.79,-192.15 557.22,-190.64"/>
<polygon fill="#000000" fill-opacity="0.200000" stroke="#000000" stroke-width="2" stroke-opacity="0.200000" points="557.83,-192.65 563.04,-189 556.69,-188.61 557.83,-192.65"/>
</g>
<!-- src/ui/base&#45;console.ts&#45;&gt;readline -->
<g id="edge17" class="edge">
<title>src/ui/base&#45;console.ts&#45;&gt;readline</title>
<path fill="none" stroke="#000000" stroke-dasharray="5,2" stroke-opacity="0.200000" d="M510.28,-77.97C526.64,-70.31 550.24,-59.26 568.13,-50.88"/>
<polygon fill="#000000" fill-opacity="0.200000" stroke="#000000" stroke-opacity="0.200000" points="569.42,-52.6 573.96,-48.15 567.63,-48.79 569.42,-52.6"/>
</g>
<!-- src/ui/base&#45;console.ts&#45;&gt;stream -->
<g id="edge18" class="edge">
<title>src/ui/base&#45;console.ts&#45;&gt;stream</title>
<path fill="none" stroke="#000000" stroke-dasharray="5,2" stroke-opacity="0.200000" d="M501.68,-77.68C512.34,-68.09 528.83,-52.41 541,-37 545.21,-31.68 543.69,-28.22 549,-24 552.77,-21 557.17,-18.59 561.7,-16.65"/>
<polygon fill="#000000" fill-opacity="0.200000" stroke="#000000" stroke-opacity="0.200000" points="562.63,-18.54 567.49,-14.44 561.13,-14.62 562.63,-18.54"/>
</g>
<!-- src/main.ts -->
<g id="node11" class="node">
<title>src/main.ts</title>
<g id="a_node11"><a xlink:href="src/main.ts" xlink:title="main.ts">
<path fill="#ddfeff" stroke="black" d="M64,-140C64,-140 22,-140 22,-140 19,-140 16,-137 16,-134 16,-134 16,-128 16,-128 16,-125 19,-122 22,-122 22,-122 64,-122 64,-122 67,-122 70,-125 70,-128 70,-128 70,-134 70,-134 70,-137 67,-140 64,-140"/>
<text text-anchor="middle" x="43" y="-128.8" font-family="Helvetica,sans-Serif" font-size="9.00">main.ts</text>
</a>
</g>
</g>
<!-- src/main.ts&#45;&gt;src/integration/toy&#45;robot&#45;console.ts -->
<g id="edge12" class="edge">
<title>src/main.ts&#45;&gt;src/integration/toy&#45;robot&#45;console.ts</title>
<path fill="none" stroke="#000000" stroke-width="2" stroke-opacity="0.200000" d="M70.18,-131C73.09,-131 76.12,-131 79.23,-131"/>
<polygon fill="#000000" fill-opacity="0.200000" stroke="#000000" stroke-width="2" stroke-opacity="0.200000" points="79.7,-133.1 85.7,-131 79.7,-128.9 79.7,-133.1"/>
</g>
</g>
</svg>
